<svg xmlns:x="http://ns.adobe.com/Extensibility/1.0/" xmlns:i="http://ns.adobe.com/AdobeIllustrator/10.0/" xmlns:graph="http://ns.adobe.com/Graphs/1.0/" xmlns="http://www.w3.org/2000/svg" xmlns:xlink="http://www.w3.org/1999/xlink" version="1.1" x="0px" y="0px" viewBox="0 0 64 80" enable-background="new 0 0 64 64" xml:space="preserve"><metadata><sfw xmlns="http://ns.adobe.com/SaveForWeb/1.0/"><slices/><sliceSourceBounds y="-8160" x="-8165" width="16389" height="16384" bottomLeftOrigin="true"/></sfw></metadata><g><g><path d="M42,20H10c-1.104,0-2,0.896-2,2v34c0,1.104,0.896,2,2,2h32c1.104,0,2-0.896,2-2V22C44,20.896,43.104,20,42,20z M12,24h12    v30H12V24z M40,54H28V24h12V54z"/><path d="M18,18h16c1.104,0,2-0.896,2-2c0-5.514-4.486-10-10-10c-5.514,0-10,4.486-10,10C16,17.104,16.896,18,18,18z M26,10    c2.607,0,4.832,1.672,5.657,4H28c0-1.104-0.896-2-2-2s-2,0.896-2,2h-3.657C21.168,11.672,23.393,10,26,10z"/><path d="M57.414,30.586c-0.781-0.781-2.047-0.781-2.828,0L54,31.172V28c0-1.104-0.896-2-2-2s-2,0.896-2,2v3.172l-0.586-0.586    c-0.781-0.781-2.047-0.781-2.828,0c-0.781,0.781-0.781,2.047,0,2.828l4,4C50.977,37.805,51.488,38,52,38s1.023-0.195,1.414-0.586    l4-4C58.195,32.633,58.195,31.367,57.414,30.586z"/></g></g></svg>